<svg xmlns="http://www.w3.org/2000/svg" width="982" height="228" viewBox="0 0 981.60 228.40" role="img" aria-label="DAxWorks"><g transform="translate(20.000 201.600)"><path transform="translate(0.000 -0.000) scale(0.200000 -0.200000)" fill="#FFFFFF" d="M315 708Q494 708 581.0 618.5Q668 529 668 362Q668 253 625.5 171.5Q583 90 502.0 45.0Q421 0 306 0Q291 0 266.0 1.0Q241 2 214.5 2.5Q188 3 166 3Q131 3 97.0 2.5Q63 2 42 0V20Q76 22 93.5 28.0Q111 34 117.0 52.0Q123 70 123 106V602Q123 639 117.0 656.5Q111 674 93.5 680.5Q76 687 42 688V708Q63 707 97.0 705.5Q131 704 164 705Q199 706 243.0 707.0Q287 708 315 708ZM290 690Q244 690 230.0 673.0Q216 656 216 604V104Q216 52 230.5 35.0Q245 18 291 18Q400 18 460.0 57.5Q520 97 544.0 173.0Q568 249 568 358Q568 470 541.5 543.5Q515 617 454.5 653.5Q394 690 290 690Z"/><path transform="translate(140.400 -0.000) scale(0.200000 -0.200000)" fill="#FFFFFF" d="M323 713 567 84Q582 46 601.0 33.5Q620 21 636 20V0Q616 2 587.0 2.5Q558 3 529 3Q490 3 456.0 2.5Q422 2 401 0V20Q452 22 466.0 37.5Q480 53 460 104L274 601L290 614L116 162Q100 122 97.0 94.5Q94 67 102.5 51.0Q111 35 131.5 28.0Q152 21 183 20V0Q155 2 124.5 2.5Q94 3 68 3Q43 3 25.5 2.5Q8 2 -7 0V20Q13 25 34.0 43.5Q55 62 72 107L307 713Q311 713 315.0 713.0Q319 713 323 713ZM445 288V268H147L157 288Z"/><path transform="translate(266.400 -0.000) scale(0.200000 -0.200000)" fill="#5B2BD6" d="M212 515V494Q193 494 180.0 485.0Q167 476 177 460L444 71Q461 46 474.0 35.5Q487 25 506 21V0Q496 1 475.5 2.5Q455 4 435 4Q404 4 368.5 2.5Q333 1 317 0V21Q337 21 350.0 30.5Q363 40 352 55L85 444Q65 473 53.0 482.5Q41 492 23 494V515Q33 514 54.0 512.5Q75 511 94 511Q126 511 161.0 512.5Q196 514 212 515ZM239 261Q239 261 241.0 254.5Q243 248 245.5 241.0Q248 234 248 234L165 126Q139 92 137.5 69.0Q136 46 156.0 34.5Q176 23 211 20V0Q194 1 173.0 1.5Q152 2 132.5 2.5Q113 3 97 3Q74 3 55.5 2.5Q37 2 21 0V20Q40 22 60.5 37.5Q81 53 109 90ZM486 515V495Q467 493 444.5 475.5Q422 458 398 425L283 266Q283 266 281.0 272.5Q279 279 277.0 285.5Q275 292 275 292L353 401Q375 432 381.0 452.0Q387 472 374.5 482.5Q362 493 326 495V515Q352 514 369.5 513.0Q387 512 410 512Q433 512 451.5 513.0Q470 514 486 515Z"/><path transform="translate(365.800 -0.000) scale(0.200000 -0.200000)" fill="#FFFFFF" d="M907 708V688Q888 684 865.0 665.5Q842 647 828 601L639 -5Q637 -5 635.0 -5.0Q633 -5 631 -5Q629 -5 627.0 -5.0Q625 -5 623 -5L411 624Q398 663 382.0 675.0Q366 687 352 688V708Q370 707 397.0 706.0Q424 705 449 705Q488 705 522.0 706.0Q556 707 577 708V688Q547 687 529.5 682.0Q512 677 509.5 660.0Q507 643 519 604L668 143L654 131L786 546Q804 601 802.5 631.5Q801 662 780.0 674.5Q759 687 717 688V708Q746 707 776.0 706.0Q806 705 832 705Q858 705 875.0 706.0Q892 707 907 708ZM208 708V688Q182 686 170.5 678.0Q159 670 159.5 652.5Q160 635 170 604L325 131L300 106L440 553L455 529L290 -5Q288 -5 286.0 -5.0Q284 -5 282 -5Q280 -5 278.0 -5.0Q276 -5 274 -5L62 624Q49 663 29.0 675.0Q9 687 -7 688V708Q13 707 42.5 706.0Q72 705 100 705Q133 705 161.5 706.0Q190 707 208 708Z"/><path transform="translate(533.000 -0.000) scale(0.200000 -0.200000)" fill="#FFFFFF" d="M274 529Q338 529 389.0 501.0Q440 473 470.5 413.0Q501 353 501 257Q501 161 470.5 101.5Q440 42 389.0 14.0Q338 -14 274 -14Q211 -14 159.5 14.0Q108 42 77.5 101.5Q47 161 47 257Q47 353 77.5 413.0Q108 473 159.5 501.0Q211 529 274 529ZM274 509Q217 509 180.5 450.0Q144 391 144 257Q144 123 180.5 64.5Q217 6 274 6Q331 6 367.5 64.5Q404 123 404 257Q404 391 367.5 450.0Q331 509 274 509Z"/><path transform="translate(642.600 -0.000) scale(0.200000 -0.200000)" fill="#FFFFFF" d="M340 529Q367 529 387.5 518.0Q408 507 419.5 489.5Q431 472 431 450Q431 425 415.5 406.0Q400 387 374 387Q353 387 337.0 400.5Q321 414 321 439Q321 458 331.5 471.5Q342 485 355 493Q348 503 334 503Q303 503 277.0 484.5Q251 466 233.0 437.0Q215 408 205.0 375.5Q195 343 195 315V103Q195 54 223.5 37.5Q252 21 301 21V0Q278 1 236.0 2.5Q194 4 147 4Q113 4 79.5 2.5Q46 1 29 0V21Q70 21 87.5 36.0Q105 51 105 93V406Q105 451 89.0 472.5Q73 494 29 494V515Q61 512 91 512Q120 512 146.5 515.5Q173 519 195 526V401Q206 430 226.5 459.5Q247 489 276.0 509.0Q305 529 340 529Z"/><path transform="translate(727.600 -0.000) scale(0.200000 -0.200000)" fill="#FFFFFF" d="M186 784V93Q186 51 201.0 36.0Q216 21 252 21V0Q236 1 204.5 2.5Q173 4 141 4Q107 4 72.0 2.5Q37 1 20 0V21Q61 21 78.5 36.0Q96 51 96 93V664Q96 709 80.0 730.5Q64 752 20 752V773Q52 770 82 770Q111 770 137.5 773.5Q164 777 186 784ZM504 515V495Q479 493 457.0 481.5Q435 470 414 448L273 300L287 328L473 73Q490 50 505.5 37.0Q521 24 543 21V0Q532 1 508.5 2.5Q485 4 462 4Q431 4 399.0 2.5Q367 1 351 0V21Q371 21 379.0 31.0Q387 41 376 55L261 223Q242 250 226.5 258.0Q211 266 182 267V287Q214 291 234.0 300.5Q254 310 272 329L346 406Q378 439 378.0 458.5Q378 478 357.5 486.5Q337 495 304 495V515Q330 514 362.5 512.5Q395 511 417 511Q434 511 450.0 511.5Q466 512 480.0 513.0Q494 514 504 515Z"/><path transform="translate(837.600 -0.000) scale(0.200000 -0.200000)" fill="#FFFFFF" d="M208 529Q248 529 276.0 516.0Q304 503 317 492Q350 465 357 528H380Q378 500 377.0 461.5Q376 423 376 358H353Q347 395 332.5 430.0Q318 465 290.0 487.5Q262 510 217 510Q182 510 158.5 490.5Q135 471 135 433Q135 403 153.0 381.5Q171 360 200.0 341.5Q229 323 263 301Q301 277 332.0 252.0Q363 227 381.5 197.0Q400 167 400 126Q400 80 376.0 49.0Q352 18 313.5 2.0Q275 -14 229 -14Q207 -14 187.5 -10.5Q168 -7 150 0Q140 5 129.5 12.0Q119 19 109 27Q99 35 91.0 26.5Q83 18 79 -7H56Q58 25 59.0 71.0Q60 117 60 193H83Q90 137 103.0 95.0Q116 53 144.0 29.5Q172 6 222 6Q242 6 262.5 15.0Q283 24 297.0 45.0Q311 66 311 101Q311 145 279.0 173.0Q247 201 198 232Q162 255 130.5 278.0Q99 301 79.5 330.0Q60 359 60 400Q60 445 80.5 473.5Q101 502 135.0 515.5Q169 529 208 529Z"/></g></svg>